<?xml version="1.0" encoding="UTF-8"?>
<svg id="Layer_1" data-name="Layer 1" xmlns="http://www.w3.org/2000/svg" width="1024" height="1024" viewBox="0 0 1024 1024">
  <defs>
    <style>
      .cls-1 {
        fill: #9e3030;
      }

      .cls-1, .cls-2 {
        stroke-width: 0px;
      }

      .cls-2 {
        fill: #eab308;
      }
    </style>
  </defs>
  <polygon class="cls-1" points="699.07 417.83 543.21 604.32 508.1 574.98 639.44 417.83 699.07 417.83"/>
  <g>
    <path class="cls-2" d="M820.04,273.08l-120.97,144.76h98.01c3.58,3.58,3.58,9.37,0,12.95l-248.79,336.37v134.34c198.56-18.31,354.07-185.31,354.07-388.64,0-90.39-30.73-173.6-82.32-239.77Z"/>
    <path class="cls-2" d="M226.91,417.83h412.53l150.05-179.51c-70.74-71.53-168.95-115.82-277.5-115.82-215.58,0-390.34,174.77-390.34,390.34,0,203.34,155.49,370.34,354.07,388.64v-134.34l-248.81-336.37c-3.56-3.58-3.56-9.37,0-12.95Z"/>
  </g>
  <path class="cls-1" d="M502.31,567.3c-29.27,0-53,23.73-53,53s23.73,53,53,53,53-23.73,53-53-23.73-53-53-53ZM502.31,647.51c-15.03,0-27.21-12.18-27.21-27.21s12.18-27.21,27.21-27.21,27.21,12.18,27.21,27.21-12.18,27.21-27.21,27.21Z"/>
</svg>