<svg id="visual" viewBox="0 0 1366 768" width="1366" height="768" xmlns="http://www.w3.org/2000/svg" xmlns:xlink="http://www.w3.org/1999/xlink" version="1.1"><path d="M1215 768L1228.7 758.8C1242.3 749.7 1269.7 731.3 1278.7 713C1287.7 694.7 1278.3 676.3 1280.5 658C1282.7 639.7 1296.3 621.3 1312.3 603.2C1328.3 585 1346.7 567 1346.7 548.8C1346.7 530.7 1328.3 512.3 1301 494C1273.7 475.7 1237.3 457.3 1216.8 439C1196.3 420.7 1191.7 402.3 1207.7 384C1223.7 365.7 1260.3 347.3 1260.3 329C1260.3 310.7 1223.7 292.3 1207.7 274C1191.7 255.7 1196.3 237.3 1198.7 219.2C1201 201 1201 183 1201 164.8C1201 146.7 1201 128.3 1217 110C1233 91.7 1265 73.3 1278.7 55C1292.3 36.7 1287.7 18.3 1285.3 9.2L1283 0L1366 0L1366 9.2C1366 18.3 1366 36.7 1366 55C1366 73.3 1366 91.7 1366 110C1366 128.3 1366 146.7 1366 164.8C1366 183 1366 201 1366 219.2C1366 237.3 1366 255.7 1366 274C1366 292.3 1366 310.7 1366 329C1366 347.3 1366 365.7 1366 384C1366 402.3 1366 420.7 1366 439C1366 457.3 1366 475.7 1366 494C1366 512.3 1366 530.7 1366 548.8C1366 567 1366 585 1366 603.2C1366 621.3 1366 639.7 1366 658C1366 676.3 1366 694.7 1366 713C1366 731.3 1366 749.7 1366 758.8L1366 768Z" fill="#eef0f4"></path><path d="M1201 768L1207.8 758.8C1214.7 749.7 1228.3 731.3 1239.7 713C1251 694.7 1260 676.3 1264.5 658C1269 639.7 1269 621.3 1271.3 603.2C1273.7 585 1278.3 567 1276.2 548.8C1274 530.7 1265 512.3 1224 494C1183 475.7 1110 457.3 1098.5 439C1087 420.7 1137 402.3 1157.5 384C1178 365.7 1169 347.3 1164.5 329C1160 310.7 1160 292.3 1139.5 274C1119 255.7 1078 237.3 1082.5 219.2C1087 201 1137 183 1146.2 164.8C1155.3 146.7 1123.7 128.3 1137.3 110C1151 91.7 1210 73.3 1237.3 55C1264.7 36.7 1260.3 18.3 1258.2 9.2L1256 0L1284 0L1286.3 9.2C1288.7 18.3 1293.3 36.7 1279.7 55C1266 73.3 1234 91.7 1218 110C1202 128.3 1202 146.7 1202 164.8C1202 183 1202 201 1199.7 219.2C1197.3 237.3 1192.7 255.7 1208.7 274C1224.7 292.3 1261.3 310.7 1261.3 329C1261.3 347.3 1224.7 365.7 1208.7 384C1192.7 402.3 1197.3 420.7 1217.8 439C1238.3 457.3 1274.7 475.7 1302 494C1329.3 512.3 1347.7 530.7 1347.7 548.8C1347.7 567 1329.3 585 1313.3 603.2C1297.3 621.3 1283.7 639.7 1281.5 658C1279.3 676.3 1288.7 694.7 1279.7 713C1270.7 731.3 1243.3 749.7 1229.7 758.8L1216 768Z" fill="#ebeef3"></path><path d="M928 768L959.8 758.8C991.7 749.7 1055.3 731.3 1107.7 713C1160 694.7 1201 676.3 1212.3 658C1223.7 639.7 1205.3 621.3 1203 603.2C1200.7 585 1214.3 567 1203 548.8C1191.7 530.7 1155.3 512.3 1091.7 494C1028 475.7 937 457.3 912 439C887 420.7 928 402.3 948.5 384C969 365.7 969 347.3 971.3 329C973.7 310.7 978.3 292.3 973.8 274C969.3 255.7 955.7 237.3 969.2 219.2C982.7 201 1023.3 183 1007.3 164.8C991.3 146.7 918.7 128.3 912 110C905.3 91.7 964.7 73.3 1005.7 55C1046.7 36.7 1069.3 18.3 1080.7 9.2L1092 0L1257 0L1259.2 9.2C1261.3 18.3 1265.7 36.7 1238.3 55C1211 73.3 1152 91.7 1138.3 110C1124.7 128.3 1156.3 146.7 1147.2 164.8C1138 183 1088 201 1083.5 219.2C1079 237.3 1120 255.7 1140.5 274C1161 292.3 1161 310.7 1165.5 329C1170 347.3 1179 365.7 1158.5 384C1138 402.3 1088 420.7 1099.5 439C1111 457.3 1184 475.7 1225 494C1266 512.3 1275 530.7 1277.2 548.8C1279.3 567 1274.7 585 1272.3 603.2C1270 621.3 1270 639.7 1265.5 658C1261 676.3 1252 694.7 1240.7 713C1229.3 731.3 1215.7 749.7 1208.8 758.8L1202 768Z" fill="#e9ecf1"></path><path d="M682 768L702.5 758.8C723 749.7 764 731.3 795.8 713C827.7 694.7 850.3 676.3 868.5 658C886.7 639.7 900.3 621.3 893.5 603.2C886.7 585 859.3 567 834.3 548.8C809.3 530.7 786.7 512.3 757.2 494C727.7 475.7 691.3 457.3 680 439C668.7 420.7 682.3 402.3 709.7 384C737 365.7 778 347.3 778 329C778 310.7 737 292.3 750.7 274C764.3 255.7 832.7 237.3 846.3 219.2C860 201 819 183 778 164.8C737 146.7 696 128.3 721 110C746 91.7 837 73.3 891.7 55C946.3 36.7 964.7 18.3 973.8 9.2L983 0L1093 0L1081.7 9.2C1070.3 18.3 1047.7 36.7 1006.7 55C965.7 73.3 906.3 91.7 913 110C919.7 128.3 992.3 146.7 1008.3 164.8C1024.3 183 983.7 201 970.2 219.2C956.7 237.3 970.3 255.7 974.8 274C979.3 292.3 974.7 310.7 972.3 329C970 347.3 970 365.7 949.5 384C929 402.3 888 420.7 913 439C938 457.3 1029 475.7 1092.7 494C1156.3 512.3 1192.7 530.7 1204 548.8C1215.3 567 1201.7 585 1204 603.2C1206.3 621.3 1224.7 639.7 1213.3 658C1202 676.3 1161 694.7 1108.7 713C1056.3 731.3 992.7 749.7 960.8 758.8L929 768Z" fill="#e6eaf0"></path><path d="M586 768L602 758.8C618 749.7 650 731.3 672.8 713C695.7 694.7 709.3 676.3 725.3 658C741.3 639.7 759.7 621.3 762 603.2C764.3 585 750.7 567 734.7 548.8C718.7 530.7 700.3 512.3 682 494C663.7 475.7 645.3 457.3 618 439C590.7 420.7 554.3 402.3 577.2 384C600 365.7 682 347.3 691.2 329C700.3 310.7 636.7 292.3 645.8 274C655 255.7 737 237.3 762 219.2C787 201 755 183 698 164.8C641 146.7 559 128.3 565.8 110C572.7 91.7 668.3 73.3 727.5 55C786.7 36.7 809.3 18.3 820.7 9.2L832 0L984 0L974.8 9.2C965.7 18.3 947.3 36.7 892.7 55C838 73.3 747 91.7 722 110C697 128.3 738 146.7 779 164.8C820 183 861 201 847.3 219.2C833.7 237.3 765.3 255.7 751.7 274C738 292.3 779 310.7 779 329C779 347.3 738 365.7 710.7 384C683.3 402.3 669.7 420.7 681 439C692.3 457.3 728.7 475.7 758.2 494C787.7 512.3 810.3 530.7 835.3 548.8C860.3 567 887.7 585 894.5 603.2C901.3 621.3 887.7 639.7 869.5 658C851.3 676.3 828.7 694.7 796.8 713C765 731.3 724 749.7 703.5 758.8L683 768Z" fill="#e2e7ed"></path><path d="M313 768L301.7 758.8C290.3 749.7 267.7 731.3 251.8 713C236 694.7 227 676.3 277 658C327 639.7 436 621.3 426.8 603.2C417.7 585 290.3 567 242.7 548.8C195 530.7 227 512.3 243 494C259 475.7 259 457.3 259 439C259 420.7 259 402.3 320.3 384C381.7 365.7 504.3 347.3 518 329C531.7 310.7 436.3 292.3 418.2 274C400 255.7 459 237.3 477.2 219.2C495.3 201 472.7 183 454.5 164.8C436.3 146.7 422.7 128.3 409 110C395.3 91.7 381.7 73.3 372.5 55C363.3 36.7 358.7 18.3 356.3 9.2L354 0L833 0L821.7 9.2C810.3 18.3 787.7 36.7 728.5 55C669.3 73.3 573.7 91.7 566.8 110C560 128.3 642 146.7 699 164.8C756 183 788 201 763 219.2C738 237.3 656 255.7 646.8 274C637.7 292.3 701.3 310.7 692.2 329C683 347.3 601 365.7 578.2 384C555.3 402.3 591.7 420.7 619 439C646.3 457.3 664.7 475.7 683 494C701.3 512.3 719.7 530.7 735.7 548.8C751.7 567 765.3 585 763 603.2C760.7 621.3 742.3 639.7 726.3 658C710.3 676.3 696.7 694.7 673.8 713C651 731.3 619 749.7 603 758.8L587 768Z" fill="#dce2ea"></path><path d="M122 768L112.8 758.8C103.7 749.7 85.3 731.3 94.5 713C103.7 694.7 140.3 676.3 199.5 658C258.7 639.7 340.3 621.3 315.2 603.2C290 585 158 567 89.8 548.8C21.7 530.7 17.3 512.3 49.3 494C81.3 475.7 149.7 457.3 172.3 439C195 420.7 172 402.3 212.8 384C253.7 365.7 358.3 347.3 390.3 329C422.3 310.7 381.7 292.3 386.3 274C391 255.7 441 237.3 425 219.2C409 201 327 183 299.7 164.8C272.3 146.7 299.7 128.3 283.7 110C267.7 91.7 208.3 73.3 199.2 55C190 36.7 231 18.3 251.5 9.2L272 0L355 0L357.3 9.2C359.7 18.3 364.3 36.7 373.5 55C382.7 73.3 396.3 91.7 410 110C423.7 128.3 437.3 146.7 455.5 164.8C473.7 183 496.3 201 478.2 219.2C460 237.3 401 255.7 419.2 274C437.3 292.3 532.7 310.7 519 329C505.3 347.3 382.7 365.7 321.3 384C260 402.3 260 420.7 260 439C260 457.3 260 475.7 244 494C228 512.3 196 530.7 243.7 548.8C291.3 567 418.7 585 427.8 603.2C437 621.3 328 639.7 278 658C228 676.3 237 694.7 252.8 713C268.7 731.3 291.3 749.7 302.7 758.8L314 768Z" fill="#d7dde6"></path><path d="M0 768L0 758.8C0 749.7 0 731.3 0 713C0 694.7 0 676.3 0 658C0 639.7 0 621.3 0 603.2C0 585 0 567 0 548.8C0 530.7 0 512.3 0 494C0 475.7 0 457.3 0 439C0 420.7 0 402.3 0 384C0 365.7 0 347.3 0 329C0 310.7 0 292.3 0 274C0 255.7 0 237.3 0 219.2C0 201 0 183 0 164.8C0 146.7 0 128.3 0 110C0 91.7 0 73.3 0 55C0 36.7 0 18.3 0 9.2L0 0L273 0L252.5 9.2C232 18.3 191 36.7 200.2 55C209.3 73.3 268.7 91.7 284.7 110C300.7 128.3 273.3 146.7 300.7 164.8C328 183 410 201 426 219.2C442 237.3 392 255.7 387.3 274C382.7 292.3 423.3 310.7 391.3 329C359.3 347.3 254.7 365.7 213.8 384C173 402.3 196 420.7 173.3 439C150.7 457.3 82.3 475.7 50.3 494C18.3 512.3 22.7 530.7 90.8 548.8C159 567 291 585 316.2 603.2C341.3 621.3 259.7 639.7 200.5 658C141.3 676.3 104.7 694.7 95.5 713C86.3 731.3 104.7 749.7 113.8 758.8L123 768Z" fill="#d1d8e3"></path></svg>